<svg id="Layer_1" viewBox="0 0 24 24" xmlns="http://www.w3.org/2000/svg" data-name="Layer 1" fill="#546B41" ><path d="m5 6c0-.552.448-1 1-1h.023c.239-2.635 2.343-4.739 4.977-4.977v2.977c0 .552.448 1 1 1s1-.448 1-1v-2.977c2.634.239 4.738 2.343 4.977 4.977h.023c.552 0 1 .448 1 1s-.448 1-1 1h-12c-.552 0-1-.448-1-1zm14.28 9.089-2.996.738c-1.902.347-3.283 2.002-3.283 3.936v3.229c0 .552.447.999.999 1l7.996.008c.553 0 1.001-.447 1.001-1v-4.998c.001-1.948-1.826-3.379-3.717-2.913zm-11.566.738-2.996-.738c-1.891-.466-3.718.965-3.718 2.913v4.989c0 .552.448 1 1 1h7.996c.552 0 1-.448 1-1v-3.228c0-1.934-1.381-3.589-3.283-3.936zm10.286-6.827h-12c.078 3.241 2.74 6 6 6 3.311.004 6.005-2.707 6-6z"/></svg>